<?xml version="1.0" encoding="utf-8"?>
<svg
	version="1.1"
	xmlns="http://www.w3.org/2000/svg"
	xmlns:xlink="http://www.w3.org/1999/xlink"
	x="0%" y="0%"
	width="100%" height="100%"
	viewBox="0 0 24.0 24.0"
	enable-background="new 0 0 24.0 24.0"
	xml:space="preserve">
<defs>
<filter id="glow0" x="-200%" y="-200%" width="600%" height="600%" >
	<feOffset result="offOut" in="SourceGraphic" dx="0.11999997" dy="0.11999997" />
	<feGaussianBlur result="blurOut" in="offOut" stdDeviation="0.17999995" />
	<feFlood flood-color="#000000" flood-opacity="1.000" result="flood"/>
	<feComposite in="flood" in2="blurOut" operator="in" result="blendOut0"/>
	<feBlend in="SourceGraphic" in2="blendOut0" mode="normal" />
</filter>

<filter id="glow1" x="-200%" y="-200%" width="600%" height="600%" >
	<feOffset result="offOut" in="SourceGraphic" dx="0.09702433" dy="0.09702433" />
	<feGaussianBlur result="blurOut" in="offOut" stdDeviation="0.07276825" />
	<feFlood flood-color="#000000" flood-opacity="1.000" result="flood"/>
	<feComposite in="flood" in2="blurOut" operator="in" result="blendOut0"/>
	<feBlend in="blendOut0" in2="blendOut0" result="blendOut1" mode="normal" />
	<feBlend in="SourceGraphic" in2="blendOut1" mode="normal" />
</filter>

</defs>
	<path
		fill="#FFFFFF"
		stroke="#000000"
		fill-opacity="1.000"
		stroke-opacity="1.000"
		fill-rule="nonzero"
		stroke-width="0.048000008"
		filter="url(#glow0)"
		stroke-linejoin="miter"
		stroke-linecap="square"
		d="M11.92,2.50C15.23,2.50,17.92,5.19,17.92,8.50C17.92,11.81,15.23,14.50,11.92,14.50C8.60,14.50,5.92,11.81,5.92,8.50C5.92,5.19,8.60,2.50,11.92,2.50z"/>
	<path
		fill="#A75300"
		stroke="#000000"
		fill-opacity="1.000"
		stroke-opacity="1.000"
		fill-rule="nonzero"
		stroke-width="0.03882534"
		filter="url(#glow1)"
		stroke-linejoin="miter"
		stroke-linecap="square"
		d="M9.92,6.10C11.27,6.10,12.36,7.17,12.36,8.50C12.36,9.83,11.27,10.90,9.92,10.90C8.56,10.90,7.47,9.83,7.47,8.50C7.47,7.17,8.56,6.10,9.92,6.10z"/>

	<text 
		font-size="10.241148"
		font-family="default"
		stroke-width="0.31719097"
		stroke="#000000"
		stroke-opacity="1.000"
		fill-opacity="0"
		text-anchor="start"
		font-weight="bold"
   		transform="rotate(-0.0 11.723427 14.565197) scale(3.414953 1.0)" >
		<tspan x="0.17246886" y="18.486197">V</tspan>
	</text> 

	<text 
		font-size="10.241148"
		font-family="default"
		fill="#00A755"
		stroke-width="0"
		fill-opacity="1.000"
		text-anchor="start"
		font-weight="bold"
   		transform="rotate(-0.0 11.723427 14.565197) scale(3.414953 1.0)" >

		<tspan x="0.17246886" y="18.486197">V</tspan>
	</text>
</svg>